<?xml version="1.0" standalone="no"?>
<!DOCTYPE svg PUBLIC "-//W3C//DTD SVG 20010904//EN"
 "http://www.w3.org/TR/2001/REC-SVG-20010904/DTD/svg10.dtd">
<svg version="1.0" xmlns="http://www.w3.org/2000/svg"
 width="1063.000000pt" height="992.000000pt" viewBox="0 0 1063.000000 992.000000"
 preserveAspectRatio="xMidYMid meet">

<g transform="translate(0.000000,992.000000) scale(0.100000,-0.100000)"
fill="#000000" stroke="none">
<path d="M6071 8719 c-48 -10 -83 -39 -108 -89 -29 -57 -29 -92 2 -158 l25
-54 0 -1495 c0 -1020 3 -1492 10 -1488 6 4 67 72 135 151 l125 145 0 498 c0
462 1 499 18 514 18 16 243 114 367 160 234 86 498 137 717 137 106 0 98 20
98 -241 0 -266 -13 -237 135 -287 171 -58 237 -67 490 -67 250 0 341 11 563
65 260 64 694 232 676 262 -4 7 -105 163 -226 345 -120 183 -218 339 -218 347
0 7 50 117 111 242 161 332 329 692 329 704 0 6 -18 1 -39 -9 -21 -11 -85 -39
-142 -62 -342 -137 -605 -197 -900 -206 -97 -3 -197 -3 -223 1 l-46 7 0 159
c0 185 9 169 -133 238 -196 96 -422 130 -685 102 -280 -30 -593 -122 -833
-246 -47 -24 -88 -44 -92 -44 -16 0 -6 93 12 116 42 53 34 148 -17 205 -33 36
-103 59 -151 48z m97 -95 c53 -37 2 -106 -53 -70 -32 21 -34 63 -2 76 30 12
30 12 55 -6z m1422 -427 c-20 -17 -80 -68 -134 -112 -55 -44 -127 -104 -160
-133 -45 -39 -62 -48 -64 -37 -6 29 6 42 63 71 31 15 61 37 65 48 5 12 9 17
10 11 0 -5 15 6 33 26 17 20 60 57 95 82 40 28 58 47 50 51 -7 3 -4 4 8 1 11
-3 29 2 40 10 34 25 30 16 -6 -18z m-90 -20 c0 -5 -10 -5 -21 -2 -14 5 -19 3
-15 -3 3 -6 2 -13 -3 -16 -7 -5 -8 15 -2 31 3 6 41 -3 41 -10z m-1393 -444
c-2 -16 -4 -3 -4 27 0 30 2 43 4 28 2 -16 2 -40 0 -55z m7 -125 c-1 -31 4 -65
12 -82 11 -24 14 -103 14 -425 0 -220 -4 -390 -9 -383 -12 20 -17 0 -20 -73
-1 -33 -4 -62 -7 -64 -2 -2 -4 242 -4 543 0 301 4 545 8 542 5 -3 8 -29 6 -58z
m23 25 c-3 -10 -5 -4 -5 12 0 17 2 24 5 18 2 -7 2 -21 0 -30z m0 -100 c-3 -10
-5 -4 -5 12 0 17 2 24 5 18 2 -7 2 -21 0 -30z m0 -880 c-3 -10 -5 -2 -5 17 0
19 2 27 5 18 2 -10 2 -26 0 -35z m-30 -210 c-2 -21 -4 -4 -4 37 0 41 2 58 4
38 2 -21 2 -55 0 -75z"/>
<path d="M5220 7243 l0 -877 178 -170 c97 -94 207 -200 245 -235 l67 -64 0
1111 0 1112 -245 0 -245 0 0 -877z"/>
<path d="M4480 7291 l0 -239 240 -227 c133 -125 242 -226 243 -224 1 2 1 212
-1 467 l-3 462 -240 0 -239 0 0 -239z"/>
<path d="M4170 6937 c-36 -23 -130 -82 -210 -132 -80 -50 -264 -165 -408 -255
-145 -90 -266 -168 -268 -174 -2 -6 -3 -456 -2 -1000 l3 -989 363 364 c200
200 414 415 475 476 l111 113 -2 230 c-1 177 1 230 11 230 7 0 80 -67 162
-150 84 -84 158 -150 168 -150 11 0 181 -159 403 -377 216 -212 393 -378 403
-378 17 0 101 89 256 270 33 39 87 102 121 140 34 39 87 99 118 134 31 36 56
70 54 76 -3 13 -506 497 -978 940 -41 38 -131 124 -200 190 -143 138 -453 429
-490 461 l-25 21 -65 -40z m31 -14 c-12 -20 -14 -14 -5 12 4 9 9 14 11 11 3
-2 0 -13 -6 -23z m-19 -45 c-7 -7 -12 -8 -12 -2 0 14 12 26 19 19 2 -3 -1 -11
-7 -17z m-150 -315 c-55 -114 -128 -266 -162 -338 -52 -107 -63 -140 -64 -185
-1 -30 -3 -178 -4 -328 -1 -158 -6 -271 -11 -268 -15 10 -21 -21 -23 -122 -2
-53 -5 94 -8 328 l-5 425 60 125 c33 69 84 168 114 220 30 52 68 124 84 160
30 66 109 200 115 195 2 -2 -41 -97 -96 -212z m1132 -1029 c316 -299 519 -512
468 -492 -24 9 -182 164 -178 174 3 7 -10 25 -27 40 l-32 29 29 -32 c17 -18
25 -33 20 -33 -5 0 -146 138 -314 307 -323 324 -306 328 34 7z"/>
<path d="M7133 6388 c-33 -40 -111 -131 -173 -203 -384 -443 -487 -562 -587
-682 l-113 -133 -1 -288 c-1 -158 -4 -372 -8 -475 l-6 -189 -220 211 c-121
116 -225 211 -231 211 -7 0 -83 -82 -170 -182 -88 -100 -172 -197 -189 -215
l-30 -33 -432 425 c-425 418 -432 425 -472 425 -40 0 -46 -6 -373 -336 -183
-184 -339 -349 -346 -366 -7 -17 -123 -144 -258 -282 l-244 -250 0 -443 c0
-244 3 -443 7 -443 3 0 56 31 117 68 61 38 264 162 451 276 187 114 348 213
358 221 18 13 19 39 23 425 l3 411 117 124 c64 68 123 126 131 129 9 4 142
-119 386 -359 204 -201 377 -365 384 -365 8 0 228 -208 489 -462 262 -255 482
-464 489 -466 8 -2 90 43 182 99 92 56 290 176 438 267 149 90 287 175 308
188 l37 24 0 1370 c0 754 -2 1370 -4 1370 -2 0 -30 -33 -63 -72z"/>
<path d="M3572 2772 c-170 -61 -226 -255 -112 -385 92 -104 273 -117 382 -27
105 86 108 261 7 357 -69 65 -184 88 -277 55z"/>
<path d="M7328 2776 c-57 -15 -110 -55 -146 -108 -35 -53 -44 -166 -17 -219
42 -84 122 -138 216 -146 120 -11 217 36 263 128 70 141 -2 298 -157 344 -60
18 -96 18 -159 1z"/>
<path d="M2392 2119 c-121 -18 -230 -71 -318 -154 -20 -19 -38 -35 -40 -35 -2
0 -4 38 -4 85 l0 85 -202 -2 -203 -3 0 -730 0 -730 213 -3 212 -2 0 382 c0
410 6 479 47 571 60 134 212 202 375 168 89 -19 146 -63 188 -145 l35 -69 3
-453 3 -454 215 0 216 0 -5 488 c-4 547 -6 566 -77 708 -67 137 -196 238 -354
279 -77 19 -224 26 -304 14z"/>
<path d="M4644 2114 c-165 -27 -288 -89 -384 -191 -71 -75 -101 -146 -108
-255 -15 -248 155 -400 503 -448 145 -20 287 -51 326 -70 47 -25 69 -55 69
-98 0 -47 -24 -77 -83 -103 -46 -21 -67 -24 -187 -24 -168 0 -288 27 -427 95
-82 40 -96 45 -104 31 -5 -9 -39 -76 -75 -150 -50 -104 -62 -136 -52 -143 88
-60 255 -117 415 -143 119 -20 365 -20 464 -1 169 32 313 110 385 208 62 85
79 142 79 268 -1 125 -19 173 -97 251 -88 88 -204 133 -433 168 -197 31 -244
41 -296 67 -59 29 -74 48 -74 95 0 28 8 46 29 68 46 48 113 66 246 65 137 -2
231 -20 346 -70 47 -20 87 -35 89 -33 6 7 135 282 135 289 0 12 -153 79 -230
99 -155 42 -377 52 -536 25z"/>
<path d="M6158 2119 c-220 -32 -398 -133 -471 -267 -85 -157 -67 -355 44 -463
98 -95 195 -132 471 -179 217 -36 267 -51 308 -92 38 -37 42 -96 9 -129 -87
-87 -325 -92 -569 -13 -58 18 -127 47 -154 64 -26 17 -51 29 -53 26 -6 -6
-143 -294 -143 -301 0 -8 113 -63 184 -89 146 -55 253 -71 481 -71 188 0 218
2 288 23 160 46 301 142 350 237 65 129 62 314 -8 425 -13 20 -42 53 -64 72
-95 81 -190 113 -456 154 -231 36 -305 65 -321 129 -21 83 61 147 206 160 132
12 311 -22 434 -81 28 -13 55 -24 60 -24 11 0 153 287 145 294 -2 2 -32 18
-67 35 -161 81 -463 121 -674 90z"/>
<path d="M8474 2119 c-228 -35 -431 -175 -522 -361 -54 -109 -73 -181 -79
-303 -16 -307 120 -559 370 -684 108 -54 178 -71 317 -78 191 -9 316 29 425
128 l54 50 7 -26 c18 -72 -28 -240 -83 -304 -84 -98 -168 -126 -367 -118 -170
6 -250 26 -383 97 l-93 50 -24 -38 c-12 -20 -33 -57 -45 -80 -12 -24 -41 -74
-63 -110 l-40 -66 27 -22 c40 -32 181 -99 258 -123 186 -57 484 -74 657 -38
277 59 455 208 534 447 37 111 41 214 41 955 l0 600 -197 3 -198 2 0 -89 0
-89 -55 53 c-60 59 -148 106 -240 130 -76 20 -222 27 -301 14z m288 -350 c193
-41 313 -224 278 -422 -32 -175 -144 -279 -318 -296 -100 -10 -172 3 -245 41
-77 41 -127 100 -156 182 -20 57 -23 80 -19 159 5 105 32 173 97 240 82 87
226 125 363 96z"/>
<path d="M3450 1365 l0 -735 215 0 215 0 0 735 0 735 -215 0 -215 0 0 -735z"/>
<path d="M7199 2008 c-6 -579 -8 -1338 -4 -1356 l5 -22 213 2 212 3 0 730 0
730 -212 3 -213 2 -1 -92z"/>
<path d="M4867 460 c-161 -41 -251 -192 -202 -340 9 -28 31 -67 47 -86 l30
-34 189 0 c219 0 209 -5 209 109 0 96 -3 101 -61 101 l-49 0 0 -62 c0 -76 -6
-87 -55 -98 -115 -26 -215 60 -202 172 8 63 39 106 95 130 54 24 114 18 164
-16 l34 -23 39 34 c37 32 38 33 20 53 -46 51 -174 81 -258 60z"/>
<path d="M3450 230 l0 -230 205 0 204 0 36 37 c94 96 79 286 -28 364 -64 46
-123 59 -279 59 l-138 0 0 -230z m306 114 c54 -26 79 -69 79 -136 0 -61 -17
-94 -69 -132 -21 -16 -46 -22 -112 -25 l-84 -3 0 156 0 156 76 0 c49 0 88 -6
110 -16z"/>
<path d="M4240 230 l0 -230 60 0 60 0 0 230 0 230 -60 0 -60 0 0 -230z"/>
<path d="M5440 230 l0 -230 54 0 c40 0 55 4 60 16 3 9 6 105 6 214 0 109 -3
205 -6 214 -5 12 -20 16 -60 16 l-54 0 0 -230z"/>
<path d="M5820 410 l0 -50 80 0 80 0 0 -180 0 -180 60 0 60 0 0 180 0 180 80
0 80 0 0 50 0 50 -220 0 -220 0 0 -50z"/>
<path d="M6646 433 c-26 -51 -186 -415 -186 -424 0 -5 25 -9 55 -9 50 0 56 2
70 30 l16 30 115 0 115 0 17 -30 c16 -28 21 -30 75 -30 70 0 71 -16 -20 183
-35 78 -78 172 -95 210 l-31 67 -58 0 c-54 0 -60 -2 -73 -27z m107 -178 c46
-113 49 -105 -38 -105 -63 0 -76 3 -72 14 37 95 71 166 77 159 5 -4 19 -35 33
-68z"/>
<path d="M7260 230 l0 -230 185 0 185 0 0 25 0 25 -125 0 -125 0 -2 203 -3
202 -57 3 -58 3 0 -231z"/>
</g>
</svg>
